<svg xmlns="http://www.w3.org/2000/svg" viewBox="0 0 100 100"><circle cx="50" cy="50" r="49" fill="#EAF3F1"/><path d="M18 100c2-22 14-34 32-34s30 12 32 34" fill="#FFFFFF" stroke="#CBD8D4" stroke-width="1.2"/><path d="M38 69l12 9 12-9" fill="none" stroke="#CBD8D4" stroke-width="1.4" stroke-linecap="round" stroke-linejoin="round"/><path d="M50 78v22" stroke="#CBD8D4" stroke-width="1.2"/><path d="M27 43c1-18 11-27 23-27 15 0 23 11 23 27-7-5-15-8-24-8-8 0-16 3-22 8z" fill="#1f2937"/><ellipse cx="50" cy="49" rx="21" ry="25" fill="#f4c7a1"/><path d="M31 41c3-14 12-21 20-21 11 0 18 8 20 20-12-7-27-8-40 1z" fill="#1f2937"/><circle cx="42" cy="49" r="2.5" fill="#1f2937"/><circle cx="58" cy="49" r="2.5" fill="#1f2937"/><g fill="none" stroke="#334155" stroke-width="2"><circle cx="41" cy="49" r="7"/><circle cx="59" cy="49" r="7"/><path d="M48 49h4"/></g><path d="M43 60c4 4 10 4 14 0" fill="none" stroke="#a44b45" stroke-width="2" stroke-linecap="round"/></svg>