<svg xmlns="http://www.w3.org/2000/svg" viewBox="0 0 100 100"><circle cx="50" cy="50" r="49" fill="#EAF3F1"/><path d="M18 100c2-22 14-34 32-34s30 12 32 34" fill="#FFFFFF" stroke="#CBD8D4" stroke-width="1.2"/><path d="M38 69l12 9 12-9" fill="none" stroke="#CBD8D4" stroke-width="1.4" stroke-linecap="round" stroke-linejoin="round"/><path d="M50 78v22" stroke="#CBD8D4" stroke-width="1.2"/><path d="M26 47c0-19 10-31 24-31s24 12 24 31v25H26z" fill="#1f2937"/><ellipse cx="50" cy="49" rx="21" ry="25" fill="#f4c7a1"/><path d="M31 41c3-14 12-21 20-21 11 0 18 8 20 20-12-7-27-8-40 1z" fill="#1f2937"/><circle cx="42" cy="49" r="2.5" fill="#1f2937"/><circle cx="58" cy="49" r="2.5" fill="#1f2937"/><path d="M43 60c4 4 10 4 14 0" fill="none" stroke="#a44b45" stroke-width="2" stroke-linecap="round"/></svg>